# xmcd
#
# Track frame offsets:
#	150
#	12531
#	22881
#	34900
#	44823
#	53139
#	63351
#	77142
#	88918
#	101371
#	113622
#	132328
#	146395
#	159014
#	167961
#	180341
#	190941
#	207923
#	219801
#	238386
#	250176
#	263136
#	274623
#	284895
#	298789
#	311297
#	329435
#
# Disc length: 4615 seconds
#
# Revision: 3
# Processed by: cddbd v1.5.1PL2 Copyright (c) Steve Scherf et al.
# Submitted via: EasyCDDAExtractor 6.2.0.3
#
DISCID=8b12051b
DTITLE=Johnny Cash - The Legend  ( 4 CD-Box ) - CD 1
DYEAR=2005
DGENRE=Country
TTITLE0=I Walk The Line 
TTITLE1=There You Go 
TTITLE2=Home Of The Blues 
TTITLE3=Ballad Of A Teenage Queen
TTITLE4=Guess Things Happen That Way
TTITLE5=The Ways Of A Woman In Love
TTITLE6=Don't Take Your Guns To Town
TTITLE7=Ring Of Fire (Single Version)
TTITLE8=The Matador 
TTITLE9=Understand Your Man 
TTITLE10=The Ballad Of Ira Hayes 
TTITLE11=Orange Blossom Special 
TTITLE12=The One On The Right Is On The Left
TTITLE13=Rosanna's Going Wild 
TTITLE14=Folsom Prison Blues (Live Version)
TTITLE15=Daddy Sang Bass 
TTITLE16=A Boy Named Sue (Live Version)
TTITLE17=What Is Truth 
TTITLE18=Sunday Mornin' Comin' Down
TTITLE19=Flesh And Blood 
TTITLE20=Man In Black 
TTITLE21=A Thing Called Love 
TTITLE22=Kate 
TTITLE23=Oney (Single Version)
TTITLE24=Any Old Wind That Blows 
TTITLE25=One Piece At A Time (Single Version)
TTITLE26=(Ghost) Riders In The Sky
EXTD=Disc One:  Win, Place and Show - The Hits\nSONY BMG Music Entertainment\n
EXTD=COL 517461 2  ( 5 099751 746126 )
EXTT0=
EXTT1=
EXTT2=
EXTT3=
EXTT4=
EXTT5=
EXTT6=
EXTT7=
EXTT8=
EXTT9=
EXTT10=
EXTT11=
EXTT12=
EXTT13=
EXTT14=
EXTT15=
EXTT16=
EXTT17=
EXTT18=
EXTT19=
EXTT20=
EXTT21=
EXTT22=
EXTT23=
EXTT24=
EXTT25=
EXTT26=
PLAYORDER=
